<svg width="168" height="216" viewBox="0 0 168 216" fill="none" xmlns="http://www.w3.org/2000/svg">
<ellipse cx="18.72" cy="20.8398" rx="18.72" ry="20.8398" transform="matrix(0.954692 0.297597 -0.235912 0.971774 74.189 0)" fill="#E84703"/>
<ellipse cx="17.6503" cy="19.649" rx="17.6503" ry="19.649" transform="matrix(0.954692 0.297597 -0.235912 0.971774 73.7554 112.05)" fill="#E84703"/>
<rect width="31.2717" height="168.077" rx="15.6359" transform="matrix(0.852211 -0.523197 0.431353 0.902183 68.8494 16.3618)" fill="#E84703"/>
<rect width="32.0487" height="158.697" rx="16.0243" transform="matrix(-0.819615 -0.572914 0.478122 -0.878293 26.2676 163.744)" fill="#E84703"/>
<path d="M17.6051 207H11.9801L22.2216 177.909H28.7273L38.983 207H33.358L25.5881 183.875H25.3608L17.6051 207ZM17.7898 195.594H33.1307V199.827H17.7898V195.594ZM47.7294 194.216V207H42.5874V185.182H47.5021V188.889H47.7578C48.2597 187.668 49.0599 186.697 50.1584 185.977C51.2663 185.258 52.6347 184.898 54.2635 184.898C55.7692 184.898 57.0807 185.22 58.1982 185.864C59.325 186.508 60.1963 187.44 60.8118 188.662C61.4368 189.884 61.7446 191.366 61.7351 193.108V207H56.593V193.903C56.593 192.445 56.2143 191.304 55.4567 190.48C54.7086 189.656 53.6716 189.244 52.3459 189.244C51.4463 189.244 50.6461 189.443 49.9453 189.841C49.254 190.229 48.7095 190.793 48.3118 191.531C47.9235 192.27 47.7294 193.165 47.7294 194.216ZM66.9624 207V185.182H72.1044V207H66.9624ZM69.5476 182.085C68.7332 182.085 68.0324 181.815 67.4453 181.276C66.8582 180.726 66.5646 180.068 66.5646 179.301C66.5646 178.525 66.8582 177.866 67.4453 177.327C68.0324 176.777 68.7332 176.503 69.5476 176.503C70.3714 176.503 71.0722 176.777 71.6499 177.327C72.237 177.866 72.5305 178.525 72.5305 179.301C72.5305 180.068 72.237 180.726 71.6499 181.276C71.0722 181.815 70.3714 182.085 69.5476 182.085ZM77.392 207V185.182H82.3068V188.889H82.5625C83.017 187.639 83.7699 186.664 84.821 185.963C85.8722 185.253 87.1269 184.898 88.5852 184.898C90.0625 184.898 91.3078 185.258 92.321 185.977C93.3438 186.687 94.0634 187.658 94.4801 188.889H94.7074C95.1903 187.677 96.0047 186.711 97.1506 185.991C98.3059 185.262 99.6742 184.898 101.256 184.898C103.263 184.898 104.902 185.532 106.17 186.801C107.439 188.07 108.074 189.921 108.074 192.355V207H102.918V193.151C102.918 191.796 102.558 190.807 101.838 190.182C101.118 189.547 100.238 189.23 99.196 189.23C97.9555 189.23 96.9848 189.618 96.2841 190.395C95.5928 191.162 95.2472 192.161 95.2472 193.392V207H90.2045V192.938C90.2045 191.811 89.8636 190.911 89.1818 190.239C88.5095 189.566 87.6288 189.23 86.5398 189.23C85.8011 189.23 85.1288 189.42 84.5227 189.798C83.9167 190.168 83.4337 190.693 83.0739 191.375C82.714 192.047 82.5341 192.833 82.5341 193.733V207H77.392ZM119.569 207.44C118.186 207.44 116.941 207.194 115.833 206.702C114.735 206.2 113.863 205.461 113.219 204.486C112.585 203.51 112.268 202.308 112.268 200.878C112.268 199.647 112.495 198.629 112.95 197.824C113.404 197.019 114.024 196.375 114.81 195.892C115.596 195.409 116.482 195.045 117.467 194.798C118.461 194.543 119.488 194.358 120.549 194.244C121.827 194.112 122.864 193.993 123.66 193.889C124.455 193.776 125.033 193.605 125.393 193.378C125.762 193.141 125.947 192.777 125.947 192.284V192.199C125.947 191.129 125.629 190.3 124.995 189.713C124.361 189.126 123.447 188.832 122.254 188.832C120.994 188.832 119.995 189.107 119.256 189.656C118.527 190.205 118.035 190.854 117.779 191.602L112.978 190.92C113.357 189.595 113.982 188.487 114.853 187.597C115.724 186.697 116.79 186.025 118.049 185.58C119.308 185.125 120.701 184.898 122.225 184.898C123.276 184.898 124.323 185.021 125.364 185.267C126.406 185.513 127.358 185.92 128.219 186.489C129.081 187.047 129.772 187.81 130.293 188.776C130.824 189.741 131.089 190.949 131.089 192.398V207H126.146V204.003H125.975C125.663 204.609 125.222 205.177 124.654 205.707C124.095 206.228 123.39 206.65 122.538 206.972C121.695 207.284 120.705 207.44 119.569 207.44ZM120.904 203.662C121.936 203.662 122.831 203.458 123.589 203.051C124.346 202.634 124.929 202.085 125.336 201.403C125.753 200.722 125.961 199.978 125.961 199.173V196.602C125.8 196.735 125.525 196.858 125.137 196.972C124.758 197.085 124.332 197.185 123.859 197.27C123.385 197.355 122.916 197.431 122.452 197.497C121.988 197.563 121.586 197.62 121.245 197.668C120.478 197.772 119.791 197.942 119.185 198.179C118.579 198.416 118.101 198.747 117.751 199.173C117.4 199.59 117.225 200.13 117.225 200.793C117.225 201.74 117.571 202.455 118.262 202.938C118.953 203.42 119.834 203.662 120.904 203.662ZM140.464 185.182L144.867 193.236L149.342 185.182H154.782L148.205 196.091L154.896 207H149.484L144.867 199.145L140.293 207H134.839L141.487 196.091L135.009 185.182H140.464Z" fill="url(#paint0_linear_117_2489)"/>
<defs>
<linearGradient id="paint0_linear_117_2489" x1="84" y1="168" x2="201.073" y2="207.679" gradientUnits="userSpaceOnUse">
<stop stop-color="#FF4D01"/>
<stop offset="1" stop-color="white" stop-opacity="0"/>
</linearGradient>
</defs>
</svg>
